<?xml version="1.0" encoding="utf-8"?>
<!-- Generator: Adobe Illustrator 25.4.0, SVG Export Plug-In . SVG Version: 6.00 Build 0)  -->
<svg version="1.1" id="Layer_1" xmlns="http://www.w3.org/2000/svg" xmlns:xlink="http://www.w3.org/1999/xlink" x="0px" y="0px"
	 viewBox="0 0 150 150" style="enable-background:new 0 0 150 150;" xml:space="preserve">
<style type="text/css">
	.st0{clip-path:url(#SVGID_00000119111385960500274600000016258798373080182663_);}
	.st1{fill:#90B956;}
</style>
<g>
	<defs>
		<rect id="SVGID_1_" width="150" height="150"/>
	</defs>
	<clipPath id="SVGID_00000114040491690939163890000013478296152714640283_">
		<use xlink:href="#SVGID_1_"  style="overflow:visible;"/>
	</clipPath>
	<g style="clip-path:url(#SVGID_00000114040491690939163890000013478296152714640283_);">
		<path class="st1" d="M108.8,55c0.3,0.9-0.3,1.9-1.2,2.2c-0.9,0.3-1.9-0.3-2.2-1.2c-0.3-0.9,0.3-1.9,1.2-2.2
			C107.6,53.5,108.5,54,108.8,55z M96.3,56.5c-0.9,0.3-1.5,1.2-1.2,2.2c0.3,0.9,1.2,1.5,2.2,1.2c0.9-0.3,1.5-1.2,1.2-2.2
			C98.2,56.8,97.3,56.2,96.3,56.5z M86.1,59.2c-0.9,0.3-1.5,1.2-1.2,2.2c0.3,0.9,1.2,1.5,2.2,1.2c0.9-0.3,1.5-1.2,1.2-2.2
			C88,59.5,87,59,86.1,59.2z M75.8,62c-0.9,0.3-1.5,1.2-1.2,2.2c0.3,0.9,1.2,1.5,2.2,1.2c0.9-0.3,1.5-1.2,1.2-2.2
			C77.7,62.3,76.7,61.7,75.8,62z M65.5,64.7C64.6,65,64,66,64.2,66.9c0.3,0.9,1.2,1.5,2.2,1.2c0.9-0.3,1.5-1.2,1.2-2.2
			C67.4,65.1,66.4,64.5,65.5,64.7z M147.1,64.3c-2.6,2.7-6.7,4.9-11.8,6.3l-36.2,9.7L89,97.1c-3.4,5.7-8.7,10.1-14.8,12.6L60.5,115
			c-0.4,0.2-0.8,0.2-1.2,0.2c-0.9,0-1.8-0.4-2.4-1.1c-0.9-1-1-2.5-0.3-3.7l13.1-22.7c-9.2,2-17.1,3-23.8,3c-6.7,0-12.3-1-17-2.9
			l-3.3,5.7c-1.4,2.4-3.6,4.1-6.2,4.8l-4,1.1c-0.3,0.1-0.6,0.1-0.8,0.1c-0.9,0-1.7-0.4-2.3-1c-0.8-0.9-1-2.1-0.6-3.2l5.9-15.8
			c-0.1-0.1-0.2-0.2-0.3-0.3C8.3,68.3,2.3,60.7,0.7,58.6c-0.7-0.8-0.8-1.9-0.5-2.9c0.3-1,1.2-1.8,2.2-2l10.2-2.7
			c2-0.5,4.1,0,5.6,1.4l13.6,12.6l30.4-8.1L38.6,43.1c-1.2-0.7-1.8-2-1.5-3.3c0.3-1.3,1.3-2.4,2.7-2.6l14.5-2.2
			c6.5-1,13.3,0.3,19.1,3.5l9.4,5.2c0.9,0.5,1.2,1.5,0.7,2.4c-0.5,0.8-1.5,1.2-2.4,0.7l-9.4-5.2c-5.1-2.8-11.1-3.9-16.9-3.1l-13.6,2
			L67,55.5l48-12.9c9.4-2.5,16.1,1.5,20.2,3.9c0.7,0.4,1.3,0.8,1.9,1.1c5.3,0.8,11.4,3.7,12.7,8.5C150.5,58.7,149.5,61.7,147.1,64.3
			z M72.1,83.7l3.4-5.8l-34.4,9.2C49.2,87.8,59.3,86.6,72.1,83.7z M146.4,57.1c-0.8-3.1-5.8-5.4-10-6c-0.2,0-0.3-0.1-0.5-0.1
			c-0.5-0.2-1.1-0.6-1.7-0.9l-11.5,3.1c-0.9,0.2-1.9-0.3-2.2-1.2c-0.3-0.9,0.3-1.9,1.2-2.2l8-2.1c-3.5-1.7-8.1-3.1-13.8-1.5
			L31.8,68.6c-0.6,0.2-1.2,0-1.7-0.4L15.8,54.9c-0.6-0.6-1.5-0.8-2.4-0.6l-9.6,2.6c2,2.6,7.8,9.9,16,20.1c0.3,0.3,0.6,0.7,0.9,1
			c0.4,0.5,0.5,1.2,0.3,1.8c0,0,0,0,0,0l-6,16.2l3.4-0.9c1.7-0.5,3.2-1.6,4.1-3.2l8-13.9l-4.7,1.3c-0.9,0.2-1.9-0.3-2.2-1.2
			c-0.3-0.9,0.3-1.9,1.2-2.2l5.5-1.5c1.2-0.3,2.6,0.1,3.3,1.1c0.8,1,0.9,2.4,0.2,3.5l-3.3,5.8c0.8,0.3,1.5,0.6,2.3,0.8l45-12.1
			l1.2-2c0.5-0.8,1.6-1.1,2.4-0.6c0.8,0.5,1.1,1.6,0.6,2.4l-22,38.1l12.8-5c5.4-2.1,10.1-6.1,13.1-11.1l18.3-30.5
			c0.5-0.8,1.6-1.1,2.4-0.6c0.5,0.3,0.8,0.9,0.8,1.5l32-8.6c0.9-0.2,1.9,0.3,2.2,1.2c0.3,0.9-0.3,1.9-1.2,2.2l-35.1,9.4l-3.6,6.1
			l32.7-8.8c5.7-1.5,8.6-3.7,10.1-5.3C146,60.2,146.8,58.4,146.4,57.1z M55.2,67.5c-0.9,0.3-1.5,1.2-1.2,2.2
			c0.3,0.9,1.2,1.5,2.2,1.2c0.9-0.3,1.5-1.2,1.2-2.2C57.1,67.8,56.1,67.2,55.2,67.5z"/>
	</g>
</g>
</svg>
