<?xml version="1.0" encoding="utf-8"?>
<!-- Generator: Adobe Illustrator 25.4.0, SVG Export Plug-In . SVG Version: 6.00 Build 0)  -->
<svg version="1.1" id="Layer_1" xmlns="http://www.w3.org/2000/svg" xmlns:xlink="http://www.w3.org/1999/xlink" x="0px" y="0px"
	 viewBox="0 0 69 16" style="enable-background:new 0 0 69 16;" xml:space="preserve">
<style type="text/css">
	.st0{fill:#90B956;}
</style>
<path class="st0" d="M0.2,15.5C0,15.3,0,15,0,14.8C1,11.1,4.2,8.4,8,8.1c2.1-4.6,6.6-7.5,11.7-7.5c3.4,0,6.6,1.4,9,3.7
	c1.2-0.4,2.5-0.6,3.8-0.6c1.6,0,3.2,0.3,4.7,0.9C39.7,1.7,43.3,0,47.2,0c5.1,0,9.7,2.9,11.9,7.4c0.2,0,0.4,0,0.6,0
	c4.4,0,8.2,3.1,8.9,7.5c0,0.2,0,0.5-0.2,0.6c-0.1,0.2-0.4,0.3-0.6,0.3H0.8C0.5,15.8,0.3,15.7,0.2,15.5z M59.8,8.9
	c-0.3,0-0.6,0-1,0.1c-0.3,0-0.7-0.1-0.8-0.5c-1.9-4.2-6.1-7-10.8-7c-3.6,0-7,1.6-9.2,4.5c-0.2,0.3-0.6,0.4-0.9,0.2
	c-1.5-0.7-3-1-4.6-1c-1.3,0-2.5,0.2-3.7,0.6c-0.3,0.1-0.6,0-0.8-0.2c-2.1-2.3-5.1-3.6-8.2-3.6c-4.6,0-8.7,2.7-10.4,7
	C9.1,9.4,8.8,9.6,8.5,9.6C5.6,9.7,3,11.6,1.9,14.2h65C65.9,11.1,63.1,8.9,59.8,8.9z"/>
</svg>
