<?xml version="1.0" encoding="utf-8"?>
<!-- Generator: Adobe Illustrator 25.4.0, SVG Export Plug-In . SVG Version: 6.00 Build 0)  -->
<svg version="1.1" id="Layer_1" xmlns="http://www.w3.org/2000/svg" xmlns:xlink="http://www.w3.org/1999/xlink" x="0px" y="0px"
	 viewBox="0 0 125 37" style="enable-background:new 0 0 125 37;" xml:space="preserve">
<style type="text/css">
	.st0{clip-path:url(#SVGID_00000130645220900944789790000000495351493801691268_);}
	.st1{fill:#0047AA;}
	.st2{fill:#FFDF22;}
</style>
<g>
	<defs>
		<rect id="SVGID_1_" width="27" height="36"/>
	</defs>
	<clipPath id="SVGID_00000023989632451511812020000002907160681201160855_">
		<use xlink:href="#SVGID_1_"  style="overflow:visible;"/>
	</clipPath>
	<g style="clip-path:url(#SVGID_00000023989632451511812020000002907160681201160855_);">
		<path class="st1" d="M23,9.3h-1.2V3.9c0-1.3-1-2.4-2.3-2.4h-0.7V0.3h0.7c1.9,0,3.5,1.6,3.5,3.6V9.3z"/>
		<path class="st1" d="M9,0.3v1.2H8.3C7,1.6,6,2.6,6,3.9v5.4H4.8V3.9c0-2,1.6-3.6,3.5-3.6H9L9,0.3z"/>
		<path class="st2" d="M17,1.9h-6.2c-0.5,0-0.9-0.4-0.9-0.9c0-0.5,0.4-0.9,0.9-0.9H17c0.5,0,0.9,0.4,0.9,0.9
			C17.9,1.4,17.5,1.9,17,1.9z"/>
		<path class="st2" d="M14.7,36H4.2c-0.2,0-0.4,0-0.6,0c-0.4-0.1-0.7-0.2-1.1-0.3l7.8-8L14.7,36L14.7,36z"/>
		<path class="st2" d="M6.8,23.9l-6.4,6.6V20.4L6.8,23.9z"/>
		<path class="st1" d="M27.4,12v20.1c0,1.9-1.4,3.5-3.2,3.8c-0.2,0-0.4,0-0.6,0h-5.9l0,0l-0.4-3.4l1.1-1.1c0.4-0.4,0.4-1,0-1.4
			c-0.4-0.4-1-0.4-1.4,0l0,0l-1.1-8.2l3-3.1c0.6-0.6,1.1-1.2,1.5-1.9c0.4-0.7,0.7-1.4,1-2.2c0.2-0.7,0-1.3-0.3-1.7
			c-0.4-0.4-1-0.6-1.6-0.4c-0.7,0.2-1.5,0.6-2.1,1c-0.7,0.4-1.3,0.9-1.9,1.5l-3,3.1l-8-1.1l0,0c0.4-0.4,0.4-1,0-1.4
			c-0.4-0.4-1-0.4-1.4,0l-1.1,1.1l-1.5-0.2V12c0-2.1,1.7-3.9,3.8-3.9h19.5C25.7,8.1,27.4,9.9,27.4,12z"/>
	</g>
</g>
<g>
	<path class="st1" d="M40.4,28.5c-2.6,0-3.3-3.8-3.7-6c-0.6,1.9-1.4,4.8-1.4,5.7c0,0.1-0.1,0.3-0.3,0.3h-0.3c-0.6,0-1.3-0.1-1.5-0.7
		c0-0.1,0-0.2,0-0.3c0-0.8,0.4-2.6,1-4.7c1-3.6,2.5-7.9,2.9-8.9c0.1-0.2,0.4-0.3,0.7-0.3c0.6,0,1.5,0.4,1.5,0.8l0,0.2
		c-0.3,0.7-1.3,3.5-2.2,6.5c0.2,0.1,0.3,0.1,0.5,0.1c1.8,0,3.7-2.5,4.4-5c0.1-0.4,0.2-0.8,0.2-1.1c0-1.1-0.5-1.9-2.2-2.2
		c-0.4-0.1-0.8-0.1-1.2-0.1c-1.8,0-3.6,0.5-5.1,1.2c-1.7,0.9-3,2.2-3.4,3.9c0,0.2-0.1,0.2-0.3,0.2c-0.1,0-0.1,0-0.2-0.1
		c-0.3-0.1-0.6-0.5-0.9-1.3c-0.1-0.4-0.2-0.8-0.2-1.3c0-0.4,0.1-0.8,0.4-1c2.5-2.1,5.5-2.9,8.7-2.9h0.3c3.6,0,6.2,1.5,6.2,4.2
		c0,0.8-0.2,1.8-0.8,2.8c-1,2-2.9,3.8-5,4c0.4,1.4,0.9,2.6,1.7,3.4c0.7,0.8,1.5,1.2,2.3,1.2l0.3,0c0.1,0,0.2,0.1,0.2,0.3
		c0,0.1-0.1,0.2-0.2,0.2c-0.5,0.3-1.5,0.8-2.1,0.8H40.4z"/>
	<path class="st1" d="M46.5,27.1c-2.3-0.1-3.1-1.4-3.1-3.1c0-0.8,0.2-1.7,0.5-2.6c0.6-1.7,2.1-3.8,4-3.8H48c1,0,1.9,0.5,1.9,1.6v0.1
		c-0.1,1.9-2,4.3-3.5,4.3c-0.3,0-0.5-0.1-0.8-0.3c-0.1,0.3-0.1,0.7-0.1,1c0,1,0.3,2.1,1.2,2.3l0.3,0c0.2,0,0.4,0,0.6-0.1
		c0.9-0.4,2.3-1.5,4-5c0.1-0.1,0.1-0.2,0.2-0.2c0.1,0,0.1,0,0.2,0.1c0.1,0,0.1,0.1,0.1,0.2c0,0,0,0.1,0,0.1c-1.8,3.8-3.3,5-4.4,5.4
		c-0.4,0.1-0.7,0.1-0.9,0.1H46.5z M48.9,19.3c0-0.2-0.1-0.2-0.1-0.3S48.7,19,48.6,19c-0.6,0-1.5,1.1-1.8,1.5c-0.4,0.6-0.8,1.3-1,2
		c0.1,0.1,0.2,0.1,0.4,0.1C47.4,22.6,48.9,20.2,48.9,19.3z"/>
	<path class="st1" d="M52.8,27.1c-1.6,0-2.3-1-2.3-2.2c0-0.6,0.2-1.3,0.6-1.8c0.1-0.2,0.4-0.3,0.6-0.3c0.6,0,1.4,0.6,1.4,0.9
		c0,0.1,0,0.1-0.1,0.2c-0.4,0.4-0.8,1.3-0.8,1.9c0,0.2,0.1,0.4,0.2,0.4c0.1,0.1,0.1,0.1,0.2,0.1c0.2,0,0.4-0.1,0.5-0.3
		c0.4-0.5,0.5-1.2,0.5-1.9c0-1.3-0.3-2.8-0.3-4c0-0.2,0-0.4,0-0.6l-1,2.1c-0.1,0.1-0.2,0.1-0.2,0.1c-0.1,0-0.1,0-0.1,0
		c-0.1,0-0.1-0.1-0.1-0.2c0-0.1,0-0.1,0-0.2c0.2-0.5,1.6-3.8,2.1-3.8h2c0.2,0,0.3,0.1,0.3,0.2c0,0.1,0,0.1-0.1,0.2
		c-0.5,0.7-0.6,1.5-0.6,2.2c0,1.1,0.4,2.3,0.4,3.4c0,0.3,0,0.5-0.1,0.8c-0.1,0.6-0.3,1.1-0.5,1.5c0.4-0.4,0.9-1.1,1.3-1.8
		c0.5-0.7,1-1.6,1.5-2.8c0.1-0.1,0.1-0.1,0.2-0.1c0,0,0.1,0,0.1,0c0.1,0.1,0.1,0.1,0.1,0.2l0,0.1c-0.5,1-1,2-1.6,2.9
		c-0.4,0.6-0.8,1.2-1.3,1.7c-0.8,0.9-1.8,0.9-2.6,0.9H52.8z"/>
	<path class="st1" d="M63.6,27.1c-0.7,0-1.4-0.1-1.7-0.6c-0.2-0.3-0.2-0.7-0.2-1.1c0-0.3,0-0.5,0.1-0.9c-0.6,1.1-1.5,2.1-2.5,2.1
		h-0.1c-1.3,0-1.8-1.1-1.8-2.5c0-2.7,1.9-6.5,4.6-6.5h0c0.7,0,1.3,0.2,1.6,0.8l0.2-0.5c0.1-0.2,0.4-0.3,0.7-0.3
		c0.6,0,1.5,0.4,1.5,0.8l0,0.1c-0.4,0.9-2.1,5.5-2.2,7.4c0,0.4,0,0.6,0.2,0.6c0.9,0,2.6-3.5,3.4-5.2c0.1-0.1,0.1-0.2,0.2-0.2l0.1,0
		c0.1,0,0.1,0.1,0.1,0.2c0,0.1,0,0.1,0,0.1c-0.9,1.9-2.6,5.5-3.8,5.5H63.6z M62.4,21.6c0.1-0.4,0.4-1.1,0.4-1.7
		c0-0.4-0.1-0.7-0.4-0.8l-0.2,0c-1.2,0-2.8,3.7-2.8,5.3c0,0.5,0.1,0.7,0.4,0.7C60.7,25.1,62.2,22.3,62.4,21.6z"/>
	<path class="st2" d="M76.7,28.5c-0.7,0-1.5-0.2-1.6-0.7l0-0.3c0-2.2,2.9-11.5,3.7-13.2c0-0.1,0.1-0.1,0.1-0.1
		C77.9,14.1,77,14,76.2,14c-0.6,0-1.1,0-1.6,0.1c-1,0.1-1.7,0.4-1.8,0.9c0,0.1-0.1,0.2-0.2,0.2c-0.1,0-0.1,0-0.2-0.1
		c-0.2-0.1-0.3-0.5-0.3-1c0-0.6,0.1-1.3,0.2-1.5c0.7-0.9,2-1.1,3.2-1.1h0.5c1.5,0,3.3,0.4,5.1,0.7c1.7,0.3,3.3,0.6,4.4,0.6
		c0.7,0,1.2-0.1,1.4-0.4c0.1-0.1,0.1-0.1,0.2-0.1s0.2,0.1,0.2,0.2c0.1,0.2,0.2,0.5,0.2,0.8c0,0.2,0,0.4-0.1,0.6
		c-0.1,0.5-0.4,1-0.8,1.1c-0.3,0.1-0.6,0.2-1.1,0.2c-0.9,0-2-0.2-3.3-0.5c-1.1-0.2-1.4-0.3-1.5-0.3v0.1l0,0.3
		c-1,2.3-3.9,11-3.9,13.4c0,0.1-0.1,0.3-0.3,0.3H76.7z"/>
	<path class="st2" d="M86,27.1c-0.7,0-1.4-0.1-1.7-0.6c-0.2-0.3-0.2-0.6-0.2-1.1c0-0.3,0-0.7,0.1-1.1c-0.2,0.4-0.4,0.7-0.6,1.1
		c-0.6,0.9-1.2,1.7-1.9,1.7h-0.4c-0.7,0-1.4-0.1-1.7-0.6c-0.2-0.3-0.2-0.6-0.2-1.1c0-0.6,0.1-1.3,0.3-2c0.4-1.9,1.4-4.6,1.8-5.4
		c0.1-0.2,0.4-0.3,0.7-0.3c0.6,0,1.5,0.4,1.5,0.8l0,0.1c-0.4,0.9-2.1,5.5-2.2,7.4c0,0.4,0,0.6,0.2,0.6c0.3,0,0.8-0.4,1.5-1.5
		c0.6-0.9,1.2-2.2,1.9-4.2c0.4-1.2,0.8-2.3,1.1-2.9c0.1-0.2,0.4-0.3,0.7-0.3c0.6,0,1.5,0.4,1.5,0.8l0,0.1C88,19.4,86.2,24,86.1,26
		c0,0.4,0,0.6,0.2,0.6c0.4,0,0.8-0.6,1.3-1.4c0.8-1.2,1.5-2.8,2-3.8c0.1-0.1,0.2-0.2,0.2-0.2c0,0,0.1,0,0.1,0
		c0.1,0.1,0.1,0.1,0.1,0.2c0,0.1,0,0.1,0,0.1c-0.5,1.1-1.3,2.8-2.1,4c-0.6,0.9-1.2,1.5-1.7,1.5H86z"/>
	<path class="st2" d="M93.5,25.6c0.1-2,1.6-6.3,1.6-6.7c0-0.1,0-0.1-0.1-0.1c-0.1,0-0.2,0.1-0.3,0.2c-1.3,1.2-3.1,4.2-3.6,5
		c-0.3,1.2-0.6,2.3-0.6,2.9c0,0.2-0.1,0.3-0.4,0.3H90c-0.6,0-1.5-0.1-1.5-0.8c0-1.4,1.6-6.7,2.3-8.4c0.1-0.2,0.4-0.3,0.7-0.3
		c0.6,0,1.5,0.4,1.5,0.8l0,0.1c-0.2,0.5-1.1,3.2-1.2,3.4c0.4-0.6,0.9-1.3,1.3-1.9c0.8-1.1,1.9-2.4,3.1-2.4c0.7,0,1.2,0.4,1.2,1.1
		l0,0.3c-0.4,1.9-1.7,5.5-1.7,7c0,0.3,0,0.5,0.2,0.5c0.7-0.1,1.2-0.9,3-5.2c0.1-0.1,0.1-0.2,0.2-0.2c0.2,0,0.3,0.1,0.3,0.3
		c0,0,0,0.1,0,0.1c-1.9,4.3-2.5,5.5-3.5,5.5l-0.8,0C94.2,27.2,93.5,27,93.5,25.6z"/>
	<path class="st2" d="M100.1,27.1c-0.7,0-1.4-0.1-1.7-0.6c-0.2-0.3-0.2-0.7-0.2-1.2c0-0.6,0.1-1.2,0.2-1.9c0.4-2,1.3-4.4,1.7-5.4
		c0.1-0.2,0.4-0.3,0.7-0.3c0.6,0,1.5,0.4,1.5,0.8l0,0.1c-0.2,0.6-2.1,6-2.1,7.6c0,0.3,0.1,0.5,0.2,0.5c0.9,0,2.6-3.5,3.3-5.2
		c0.1-0.1,0.1-0.2,0.2-0.2l0.1,0c0.1,0,0.1,0.1,0.1,0.2c0,0.1,0,0.1,0,0.1c-0.9,1.9-2.5,5.5-3.8,5.5H100.1z M101,15.9
		c0-0.4,0.3-1.5,0.5-1.8c0.1-0.2,0.3-0.3,0.6-0.3c0.6,0,1.4,0.4,1.4,0.8c0,0.1,0,0.1-0.1,0.2c-0.1,0.2-0.5,1.2-0.7,1.6
		c-0.1,0.1-0.2,0.2-0.5,0.2C101.8,16.6,101,16.3,101,15.9z"/>
	<path class="st2" d="M104.8,27.1c-1.6,0-2.3-1-2.3-2.2c0-0.6,0.2-1.3,0.6-1.8c0.1-0.2,0.4-0.3,0.6-0.3c0.6,0,1.4,0.6,1.4,0.9
		c0,0.1,0,0.1-0.1,0.2c-0.4,0.4-0.8,1.3-0.8,1.9c0,0.2,0.1,0.4,0.2,0.4c0.1,0.1,0.1,0.1,0.2,0.1c0.2,0,0.4-0.1,0.5-0.3
		c0.4-0.5,0.5-1.2,0.5-1.9c0-1.3-0.3-2.8-0.3-4c0-0.2,0-0.4,0-0.6l-1,2.1c-0.1,0.1-0.2,0.1-0.2,0.1c-0.1,0-0.1,0-0.1,0
		c-0.1,0-0.1-0.1-0.1-0.2c0-0.1,0-0.1,0-0.2c0.2-0.5,1.6-3.8,2.1-3.8h2c0.2,0,0.3,0.1,0.3,0.2c0,0.1,0,0.1-0.1,0.2
		c-0.5,0.7-0.6,1.5-0.6,2.2c0,1.1,0.4,2.3,0.4,3.4c0,0.3,0,0.5-0.1,0.8c-0.1,0.6-0.3,1.1-0.5,1.5c0.4-0.4,0.9-1.1,1.3-1.8
		c0.5-0.7,1-1.6,1.5-2.8c0.1-0.1,0.1-0.1,0.2-0.1c0,0,0.1,0,0.1,0c0.1,0.1,0.1,0.1,0.1,0.2l0,0.1c-0.5,1-1,2-1.6,2.9
		c-0.4,0.6-0.8,1.2-1.3,1.7c-0.8,0.9-1.8,0.9-2.6,0.9H104.8z"/>
	<path class="st2" d="M111.1,27.1c-0.7,0-1.4-0.1-1.7-0.6c-0.2-0.3-0.2-0.7-0.2-1.2c0-0.6,0.1-1.2,0.2-1.9c0.4-2,1.3-4.4,1.7-5.4
		c0.1-0.2,0.4-0.3,0.7-0.3c0.6,0,1.5,0.4,1.5,0.8l0,0.1c-0.2,0.6-2.1,6-2.1,7.6c0,0.3,0.1,0.5,0.2,0.5c0.9,0,2.6-3.5,3.3-5.2
		c0.1-0.1,0.1-0.2,0.2-0.2l0.1,0c0.1,0,0.1,0.1,0.1,0.2c0,0.1,0,0.1,0,0.1c-0.9,1.9-2.5,5.5-3.8,5.5H111.1z M112.1,15.9
		c0-0.4,0.3-1.5,0.5-1.8c0.1-0.2,0.3-0.3,0.6-0.3c0.6,0,1.4,0.4,1.4,0.8c0,0.1,0,0.1-0.1,0.2c-0.1,0.2-0.5,1.2-0.7,1.6
		c-0.1,0.1-0.2,0.2-0.5,0.2C112.9,16.6,112.1,16.3,112.1,15.9z"/>
	<path class="st2" d="M117.3,27.1c-2.3-0.1-3.1-1.4-3.1-3.1c0-0.8,0.2-1.7,0.5-2.6c0.6-1.7,2.1-3.8,4-3.8h0.1c1,0,1.9,0.5,1.9,1.6
		v0.1c-0.1,1.9-2,4.3-3.5,4.3c-0.3,0-0.5-0.1-0.8-0.3c-0.1,0.3-0.1,0.7-0.1,1c0,1,0.3,2.1,1.2,2.3l0.3,0c0.2,0,0.4,0,0.6-0.1
		c0.9-0.4,2.3-1.5,4-5c0.1-0.1,0.1-0.2,0.2-0.2c0.1,0,0.1,0,0.2,0.1c0.1,0,0.1,0.1,0.1,0.2c0,0,0,0.1,0,0.1c-1.8,3.8-3.3,5-4.4,5.4
		c-0.4,0.1-0.7,0.1-0.9,0.1H117.3z M119.8,19.3c0-0.2-0.1-0.2-0.1-0.3s-0.1-0.1-0.2-0.1c-0.6,0-1.5,1.1-1.8,1.5
		c-0.4,0.6-0.8,1.3-1,2c0.1,0.1,0.2,0.1,0.4,0.1C118.2,22.6,119.8,20.2,119.8,19.3z"/>
</g>
</svg>
